<mxfile host="Electron" modified="2024-05-13T16:46:07.463Z" agent="Mozilla/5.0 (Windows NT 10.0; Win64; x64) AppleWebKit/537.36 (KHTML, like Gecko) draw.io/24.0.4 Chrome/120.0.6099.109 Electron/28.1.0 Safari/537.36" etag="yWUJYl_kL0x6EgKvQVWT" version="24.0.4" type="device">
  <diagram name="第 1 页" id="jllA026cWRsvl4K6qyYJ">
    <mxGraphModel dx="418" dy="269" grid="0" gridSize="10" guides="1" tooltips="1" connect="1" arrows="1" fold="1" page="1" pageScale="1" pageWidth="500" pageHeight="482" math="0" shadow="0">
      <root>
        <mxCell id="0" />
        <mxCell id="1" parent="0" />
        <mxCell id="LByBCSM1y4JmfTlWCJix-22" value="" style="rounded=1;whiteSpace=wrap;html=1;fillColor=none;dashed=1;" vertex="1" parent="1">
          <mxGeometry x="10" y="56" width="150" height="100" as="geometry" />
        </mxCell>
        <mxCell id="LByBCSM1y4JmfTlWCJix-16" style="edgeStyle=orthogonalEdgeStyle;rounded=0;orthogonalLoop=1;jettySize=auto;html=1;exitX=0.5;exitY=0;exitDx=0;exitDy=0;" edge="1" parent="1" source="LByBCSM1y4JmfTlWCJix-1">
          <mxGeometry relative="1" as="geometry">
            <mxPoint x="25" y="156" as="targetPoint" />
          </mxGeometry>
        </mxCell>
        <mxCell id="LByBCSM1y4JmfTlWCJix-1" value="man" style="rounded=0;whiteSpace=wrap;html=1;fontSize=11;" vertex="1" parent="1">
          <mxGeometry x="10" y="171" width="30" height="30" as="geometry" />
        </mxCell>
        <mxCell id="LByBCSM1y4JmfTlWCJix-2" value="is" style="rounded=0;whiteSpace=wrap;html=1;fontSize=11;" vertex="1" parent="1">
          <mxGeometry x="50" y="171" width="30" height="30" as="geometry" />
        </mxCell>
        <mxCell id="LByBCSM1y4JmfTlWCJix-3" value="riding" style="rounded=0;whiteSpace=wrap;html=1;fontSize=11;" vertex="1" parent="1">
          <mxGeometry x="90" y="171" width="30" height="30" as="geometry" />
        </mxCell>
        <mxCell id="LByBCSM1y4JmfTlWCJix-4" value="..." style="rounded=0;whiteSpace=wrap;html=1;" vertex="1" parent="1">
          <mxGeometry x="130" y="171" width="30" height="30" as="geometry" />
        </mxCell>
        <mxCell id="LByBCSM1y4JmfTlWCJix-46" style="edgeStyle=orthogonalEdgeStyle;rounded=0;orthogonalLoop=1;jettySize=auto;html=1;entryX=0.5;entryY=1;entryDx=0;entryDy=0;" edge="1" parent="1" target="LByBCSM1y4JmfTlWCJix-31">
          <mxGeometry relative="1" as="geometry">
            <mxPoint x="65" y="56" as="sourcePoint" />
          </mxGeometry>
        </mxCell>
        <mxCell id="LByBCSM1y4JmfTlWCJix-27" value="" style="shape=image;verticalLabelPosition=bottom;labelBackgroundColor=default;verticalAlign=top;aspect=fixed;imageAspect=0;image=data:image/svg+xml,PHN2ZyB4bWxuczp4bGluaz0iaHR0cDovL3d3dy53My5vcmcvMTk5OS94bGluayIgeG1sbnM9Imh0dHA6Ly93d3cudzMub3JnLzIwMDAvc3ZnIiBoZWlnaHQ9IjIwMCIgd2lkdGg9IjIwMCIgdmVyc2lvbj0iMS4xIiB2aWV3Qm94PSIwIDAgMTAyNCAxMDI0IiBjbGFzcz0iaWNvbiI+PHBhdGggZmlsbD0iIzEyOTZkYiIgZD0iTTIyOS4yMjY2NjcgMjg5LjQ5MzMzM2wyMTMuMzMzMzMzLTEyNi44NDhhMTAuNjY2NjY3IDEwLjY2NjY2NyAwIDAgMSAxMC44OCAxOC4zNDY2NjdsLTIxMy4zMzMzMzMgMTI2Ljg0OGExMC42NjY2NjcgMTAuNjY2NjY3IDAgMSAxLTEwLjg4LTE4LjM0NjY2N3pNMjI5LjIyNjY2NyA1MDIuODI2NjY3bDIxMy4zMzMzMzMtMTI2Ljg0OGExMC42NjY2NjcgMTAuNjY2NjY3IDAgMCAxIDEwLjg4IDE4LjM0NjY2NmwtMjEzLjMzMzMzMyAxMjYuODQ4YTEwLjY2NjY2NyAxMC42NjY2NjcgMCAxIDEtMTAuODgtMTguMzQ2NjY2ek0yMjkuMjI2NjY3IDcxNi4xNmwyMTMuMzMzMzMzLTEyNi44NDhhMTAuNjY2NjY3IDEwLjY2NjY2NyAwIDAgMSAxMC44OCAxOC4zNDY2NjdsLTIxMy4zMzMzMzMgMTI2Ljg0OGExMC42NjY2NjcgMTAuNjY2NjY3IDAgMSAxLTEwLjg4LTE4LjM0NjY2N3oiLz48cGF0aCBmaWxsPSIjMTI5NmRiIiBkPSJNMjI5LjEyIDcxNi4yMjRsMjEyLjk0OTMzMy0xMzAuMDY5MzMzYTEwLjY2NjY2NyAxMC42NjY2NjcgMCAwIDEgMTEuMTM2IDE4LjE5NzMzM2wtMjEyLjk3MDY2NiAxMzAuMDkwNjY3YTEwLjY2NjY2NyAxMC42NjY2NjcgMCAxIDEtMTEuMTE0NjY3LTE4LjIxODY2N3oiLz48cGF0aCBmaWxsPSIjMTI5NmRiIiBkPSJNMjM4LjU0OTMzMyA3MTUuMzkybDIxMi45NzA2NjcgODMuMjY0YTEwLjY2NjY2NyAxMC42NjY2NjcgMCAxIDEtNy43NjUzMzMgMTkuODYxMzMzbC0yMTIuOTcwNjY3LTgzLjI0MjY2NmExMC42NjY2NjcgMTAuNjY2NjY3IDAgMSAxIDcuNzY1MzMzLTE5Ljg4MjY2N3pNNTg4LjYyOTMzMyAxNjhhMTAuNjQ1MzMzIDEwLjY0NTMzMyAwIDEgMC0xOS44NCA3Ljg1MDY2N2wyMTAuNjI0IDUzMi4wNTMzMzNhMTAuNjY2NjY3IDEwLjY2NjY2NyAwIDAgMCAxOS44NC03LjgyOTMzM2wtMjEwLjYyNC01MzIuMDUzMzM0eiIvPjxwYXRoIGZpbGw9IiMxMjk2ZGIiIGQ9Ik01ODQuMjc3MzMzIDE2Mi44MzczMzNsMjEyLjI2NjY2NyAxMjkuODc3MzM0YTEwLjY2NjY2NyAxMC42NjY2NjcgMCAwIDEtMTEuMTU3MzMzIDE4LjE5NzMzM2wtMjEyLjI0NTMzNC0xMjkuODc3MzMzYTEwLjY2NjY2NyAxMC42NjY2NjcgMCAxIDEgMTEuMTM2LTE4LjE5NzMzNHpNNTk1LjA1MDY2NyAzODkuMzk3MzMzYTEwLjY2NjY2NyAxMC42NjY2NjcgMCAxIDAtMTcuODc3MzM0IDExLjY0OGwyMDAuNTc2IDMwNy45MjUzMzRhMTAuNjY2NjY3IDEwLjY2NjY2NyAwIDEgMCAxNy44NzczMzQtMTEuNjQ4bC0yMDAuNTc2LTMwNy45MjUzMzR6Ii8+PHBhdGggZmlsbD0iIzEyOTZkYiIgZD0iTTU4MS41ODkzMzMgMzg1LjU1NzMzM2wyMDAuNTU0NjY3LTkzLjQ4MjY2NmExMC42NjY2NjcgMTAuNjY2NjY3IDAgMSAxIDkuMDI0IDE5LjM0OTMzM2wtMjAwLjU1NDY2NyA5My40NjEzMzNhMTAuNjY2NjY3IDEwLjY2NjY2NyAwIDEgMS05LjAyNC0xOS4zMjh6TTU3NS4xNjggODAwLjE3MDY2N2wyMDguNDQ4LTEwNi4yNGExMC42NjY2NjcgMTAuNjY2NjY3IDAgMSAxIDkuNjg1MzMzIDE4Ljk4NjY2NmwtMjA4LjQyNjY2NiAxMDYuMjYxMzM0YTEwLjY2NjY2NyAxMC42NjY2NjcgMCAxIDEtOS43MDY2NjctMTguOTg2NjY3eiIvPjxwYXRoIGZpbGw9IiMxMjk2ZGIiIGQ9Ik03OTYuNDM3MzMzIDMwNS43MDY2NjdsLTIwNi41NDkzMzMgNTA3Ljk4OTMzM2ExMC42NjY2NjcgMTAuNjY2NjY3IDAgMCAxLTE5Ljc1NDY2Ny04LjAyMTMzM2wyMDYuNTQ5MzM0LTUwOC4wMTA2NjdhMTAuNjY2NjY3IDEwLjY2NjY2NyAwIDEgMSAxOS43NTQ2NjYgOC4wMjEzMzN6Ii8+PHBhdGggZmlsbD0iIzEyOTZkYiIgZD0iTTc5NS4zNDkzMzMgMzA3LjkyNTMzM2ExMC42NjY2NjcgMTAuNjY2NjY3IDAgMCAwLTE3LjM4NjY2Ni0xMi4zNzMzMzNsLTIxMi45NDkzMzQgMjk5Ljc1NDY2N2ExMC42NjY2NjcgMTAuNjY2NjY3IDAgMSAwIDE3LjM4NjY2NyAxMi4zNzMzMzNsMjEyLjk0OTMzMy0yOTkuNzMzMzMzeiIvPjxwYXRoIGZpbGw9IiMxMjk2ZGIiIGQ9Ik03OTUuMzQ5MzMzIDMwNy45MjUzMzNhMTAuNjY2NjY3IDEwLjY2NjY2NyAwIDAgMC0xNy4zODY2NjYtMTIuMzczMzMzbC0yMTIuOTQ5MzM0IDI5OS43NTQ2NjdhMTAuNjY2NjY3IDEwLjY2NjY2NyAwIDEgMCAxNy4zODY2NjcgMTIuMzczMzMzbDIxMi45NDkzMzMtMjk5LjczMzMzM3oiLz48cGF0aCBmaWxsPSIjMTI5NmRiIiBkPSJNNzk1LjM0OTMzMyAzMDcuOTI1MzMzYTEwLjY2NjY2NyAxMC42NjY2NjcgMCAwIDAtMTcuMzg2NjY2LTEyLjM3MzMzM2wtMjEyLjk0OTMzNCAyOTkuNzU0NjY3YTEwLjY2NjY2NyAxMC42NjY2NjcgMCAxIDAgMTcuMzg2NjY3IDEyLjM3MzMzM2wyMTIuOTQ5MzMzLTI5OS43MzMzMzN6Ii8+PHBhdGggZmlsbD0iIzEyOTZkYiIgZD0iTTc5NS4zNDkzMzMgMzA3LjkyNTMzM2ExMC42NjY2NjcgMTAuNjY2NjY3IDAgMCAwLTE3LjM4NjY2Ni0xMi4zNzMzMzNsLTIxMi45NDkzMzQgMjk5Ljc1NDY2N2ExMC42NjY2NjcgMTAuNjY2NjY3IDAgMSAwIDE3LjM4NjY2NyAxMi4zNzMzMzNsMjEyLjk0OTMzMy0yOTkuNzMzMzMzeiIvPjxwYXRoIGZpbGw9IiMxMjk2ZGIiIGQ9Ik01NjkuMDAyNjY3IDYxMS4wNzJsMjEzLjQ2MTMzMyAxMDUuMDQ1MzMzYTEwLjY2NjY2NyAxMC42NjY2NjcgMCAxIDAgOS40MjkzMzMtMTkuMTM2bC0yMTMuNDgyNjY2LTEwNS4wNjY2NjZhMTAuNjY2NjY3IDEwLjY2NjY2NyAwIDAgMC05LjQwOCAxOS4xNTczMzN6TTI0My4zNDkzMzMgNTA1LjgxMzMzM2ExMC42NjY2NjcgMTAuNjY2NjY3IDAgMCAwLTE3LjM2NTMzMyAxMi4zNzMzMzRsMjE0Ljk5NzMzMyAzMDEuNTg5MzMzYTEwLjY4OCAxMC42ODggMCAwIDAgMTYuMjEzMzM0IDEuMzQ0IDEwLjY2NjY2NyAxMC42NjY2NjcgMCAwIDAgMS4xNTItMTMuNzE3MzMzTDI0My4zNDkzMzMgNTA1LjgxMzMzM3oiLz48cGF0aCBmaWxsPSIjMTI5NmRiIiBkPSJNMjM4LjU3MDY2NyA1MDIuMDhsMjE1LjIzMiA4NC41NDRhMTAuNjY2NjY3IDEwLjY2NjY2NyAwIDEgMS03LjgwOCAxOS44NGwtMjE1LjIzMi04NC41MjI2NjdhMTAuNjY2NjY3IDEwLjY2NjY2NyAwIDEgMSA3LjgwOC0xOS44NjEzMzN6TTIzMC42OTg2NjcgMzA4LjU2NTMzM2ExMC42NjY2NjcgMTAuNjY2NjY3IDAgMSAxIDcuOTM2LTE5Ljc5NzMzM2wyMTIuNTY1MzMzIDg1LjA1NmExMC42NjY2NjcgMTAuNjY2NjY3IDAgMCAxLTcuOTM2IDE5Ljc5NzMzM2wtMjEyLjU2NTMzMy04NS4wNTZ6Ii8+PHBhdGggZmlsbD0iIzEyOTZkYiIgZD0iTTI0NC41NDQgMjk0LjYxMzMzM2wyMTAuNTE3MzMzIDUxMi42ODI2NjdhMTAuNjY2NjY3IDEwLjY2NjY2NyAwIDAgMS0xOS43MzMzMzMgOC4xMDY2NjdMMjI0LjgxMDY2NyAzMDIuNzJhMTAuNjY2NjY3IDEwLjY2NjY2NyAwIDEgMSAxOS43MzMzMzMtOC4xMDY2Njd6Ii8+PHBhdGggZmlsbD0iIzEyOTZkYiIgZD0iTTI0My4zNDkzMzMgMjkyLjQ4YTEwLjY2NjY2NyAxMC42NjY2NjcgMCAwIDAtMTcuMzY1MzMzIDEyLjM3MzMzM2wyMTEuOTQ2NjY3IDI5Ny4zMDEzMzRhMTAuNjY2NjY3IDEwLjY2NjY2NyAwIDEgMCAxNy4zODY2NjYtMTIuMzczMzM0di0wLjAyMTMzM0wyNDMuMzQ5MzMzIDI5Mi40OHoiLz48cGF0aCBmaWxsPSIjMTI5NmRiIiBkPSJNNTEyIDI1NmE4Mi4yMTg2NjcgODIuMjE4NjY3IDAgMCAxLTYwLjMzMDY2Ny0yNS4wMDI2NjdBODIuMjE4NjY3IDgyLjIxODY2NyAwIDAgMSA0MjYuNjY2NjY3IDE3MC42NjY2NjdjMC0yMy41NzMzMzMgOC4zMi00My42NjkzMzMgMjUuMDAyNjY2LTYwLjMzMDY2N0E4Mi4yMTg2NjcgODIuMjE4NjY3IDAgMCAxIDUxMiA4NS4zMzMzMzNjMjMuNTczMzMzIDAgNDMuNjY5MzMzIDguMzIgNjAuMzMwNjY3IDI1LjAwMjY2N0E4Mi4yMTg2NjcgODIuMjE4NjY3IDAgMCAxIDU5Ny4zMzMzMzMgMTcwLjY2NjY2N2MwIDIzLjU3MzMzMy04LjMyIDQzLjY2OTMzMy0yNS4wMDI2NjYgNjAuMzMwNjY2QTgyLjIxODY2NyA4Mi4yMTg2NjcgMCAwIDEgNTEyIDI1NnogbTAtMTI4Yy0xMS43NzYgMC0yMS44NDUzMzMgNC4xNi0zMC4xNjUzMzMgMTIuNTAxMzMzLTguMzIgOC4zMi0xMi41MDEzMzMgMTguMzg5MzMzLTEyLjUwMTMzNCAzMC4xNjUzMzQgMCAxMS43NzYgNC4xNiAyMS44NDUzMzMgMTIuNTAxMzM0IDMwLjE2NTMzMyA4LjMyIDguMzIgMTguMzg5MzMzIDEyLjUwMTMzMyAzMC4xNjUzMzMgMTIuNTAxMzMzIDExLjc3NiAwIDIxLjg0NTMzMy00LjE2IDMwLjE2NTMzMy0xMi41MDEzMzMgOC4zMi04LjMyIDEyLjUwMTMzMy0xOC4zODkzMzMgMTIuNTAxMzM0LTMwLjE2NTMzMyAwLTExLjc3Ni00LjE2LTIxLjg0NTMzMy0xMi41MDEzMzQtMzAuMTY1MzM0QTQxLjEwOTMzMyA0MS4xMDkzMzMgMCAwIDAgNTEyIDEyOHpNNTEyIDQ2OS4zMzMzMzNhODIuMjE4NjY3IDgyLjIxODY2NyAwIDAgMS02MC4zMzA2NjctMjUuMDAyNjY2QTgyLjIxODY2NyA4Mi4yMTg2NjcgMCAwIDEgNDI2LjY2NjY2NyAzODRjMC0yMy41NzMzMzMgOC4zMi00My42NjkzMzMgMjUuMDAyNjY2LTYwLjMzMDY2N0E4Mi4yMTg2NjcgODIuMjE4NjY3IDAgMCAxIDUxMiAyOTguNjY2NjY3YzIzLjU3MzMzMyAwIDQzLjY2OTMzMyA4LjMyIDYwLjMzMDY2NyAyNS4wMDI2NjZBODIuMjE4NjY3IDgyLjIxODY2NyAwIDAgMSA1OTcuMzMzMzMzIDM4NGMwIDIzLjU3MzMzMy04LjMyIDQzLjY2OTMzMy0yNS4wMDI2NjYgNjAuMzMwNjY3QTgyLjIxODY2NyA4Mi4yMTg2NjcgMCAwIDEgNTEyIDQ2OS4zMzMzMzN6IG0wLTEyOGMtMTEuNzc2IDAtMjEuODQ1MzMzIDQuMTYtMzAuMTY1MzMzIDEyLjUwMTMzNC04LjMyIDguMzItMTIuNTAxMzMzIDE4LjM4OTMzMy0xMi41MDEzMzQgMzAuMTY1MzMzIDAgMTEuNzc2IDQuMTYgMjEuODQ1MzMzIDEyLjUwMTMzNCAzMC4xNjUzMzMgOC4zMiA4LjMyIDE4LjM4OTMzMyAxMi41MDEzMzMgMzAuMTY1MzMzIDEyLjUwMTMzNCAxMS43NzYgMCAyMS44NDUzMzMtNC4xNiAzMC4xNjUzMzMtMTIuNTAxMzM0IDguMzItOC4zMiAxMi41MDEzMzMtMTguMzg5MzMzIDEyLjUwMTMzNC0zMC4xNjUzMzMgMC0xMS43NzYtNC4xNi0yMS44NDUzMzMtMTIuNTAxMzM0LTMwLjE2NTMzM0E0MS4xMDkzMzMgNDEuMTA5MzMzIDAgMCAwIDUxMiAzNDEuMzMzMzMzek01MTIgNjgyLjY2NjY2N2E4Mi4yMTg2NjcgODIuMjE4NjY3IDAgMCAxLTYwLjMzMDY2Ny0yNS4wMDI2NjdBODIuMjE4NjY3IDgyLjIxODY2NyAwIDAgMSA0MjYuNjY2NjY3IDU5Ny4zMzMzMzNjMC0yMy41NzMzMzMgOC4zMi00My42NjkzMzMgMjUuMDAyNjY2LTYwLjMzMDY2NkE4Mi4yMTg2NjcgODIuMjE4NjY3IDAgMCAxIDUxMiA1MTJjMjMuNTczMzMzIDAgNDMuNjY5MzMzIDguMzIgNjAuMzMwNjY3IDI1LjAwMjY2N0E4Mi4yMTg2NjcgODIuMjE4NjY3IDAgMCAxIDU5Ny4zMzMzMzMgNTk3LjMzMzMzM2MwIDIzLjU3MzMzMy04LjMyIDQzLjY2OTMzMy0yNS4wMDI2NjYgNjAuMzMwNjY3QTgyLjIxODY2NyA4Mi4yMTg2NjcgMCAwIDEgNTEyIDY4Mi42NjY2Njd6IG0wLTEyOGMtMTEuNzc2IDAtMjEuODQ1MzMzIDQuMTYtMzAuMTY1MzMzIDEyLjUwMTMzMy04LjMyIDguMzItMTIuNTAxMzMzIDE4LjM4OTMzMy0xMi41MDEzMzQgMzAuMTY1MzMzIDAgMTEuNzc2IDQuMTYgMjEuODQ1MzMzIDEyLjUwMTMzNCAzMC4xNjUzMzQgOC4zMiA4LjMyIDE4LjM4OTMzMyAxMi41MDEzMzMgMzAuMTY1MzMzIDEyLjUwMTMzMyAxMS43NzYgMCAyMS44NDUzMzMtNC4xNiAzMC4xNjUzMzMtMTIuNTAxMzMzIDguMzItOC4zMiAxMi41MDEzMzMtMTguMzg5MzMzIDEyLjUwMTMzNC0zMC4xNjUzMzQgMC0xMS43NzYtNC4xNi0yMS44NDUzMzMtMTIuNTAxMzM0LTMwLjE2NTMzM0E0MS4xMDkzMzMgNDEuMTA5MzMzIDAgMCAwIDUxMiA1NTQuNjY2NjY3ek01MTIgODk2YTgyLjIxODY2NyA4Mi4yMTg2NjcgMCAwIDEtNjAuMzMwNjY3LTI1LjAwMjY2N0E4Mi4yMTg2NjcgODIuMjE4NjY3IDAgMCAxIDQyNi42NjY2NjcgODEwLjY2NjY2N2MwLTIzLjU3MzMzMyA4LjMyLTQzLjY2OTMzMyAyNS4wMDI2NjYtNjAuMzMwNjY3QTgyLjIxODY2NyA4Mi4yMTg2NjcgMCAwIDEgNTEyIDcyNS4zMzMzMzNjMjMuNTczMzMzIDAgNDMuNjY5MzMzIDguMzIgNjAuMzMwNjY3IDI1LjAwMjY2N0E4Mi4yMTg2NjcgODIuMjE4NjY3IDAgMCAxIDU5Ny4zMzMzMzMgODEwLjY2NjY2N2MwIDIzLjU3MzMzMy04LjMyIDQzLjY2OTMzMy0yNS4wMDI2NjYgNjAuMzMwNjY2QTgyLjIxODY2NyA4Mi4yMTg2NjcgMCAwIDEgNTEyIDg5NnogbTAtMTI4Yy0xMS43NzYgMC0yMS44NDUzMzMgNC4xNi0zMC4xNjUzMzMgMTIuNTAxMzMzLTguMzIgOC4zMi0xMi41MDEzMzMgMTguMzg5MzMzLTEyLjUwMTMzNCAzMC4xNjUzMzQgMCAxMS43NzYgNC4xNiAyMS44NDUzMzMgMTIuNTAxMzM0IDMwLjE2NTMzMyA4LjMyIDguMzIgMTguMzg5MzMzIDEyLjUwMTMzMyAzMC4xNjUzMzMgMTIuNTAxMzMzIDExLjc3NiAwIDIxLjg0NTMzMy00LjE2IDMwLjE2NTMzMy0xMi41MDEzMzMgOC4zMi04LjMyIDEyLjUwMTMzMy0xOC4zODkzMzMgMTIuNTAxMzM0LTMwLjE2NTMzMyAwLTExLjc3Ni00LjE2LTIxLjg0NTMzMy0xMi41MDEzMzQtMzAuMTY1MzM0QTQxLjEwOTMzMyA0MS4xMDkzMzMgMCAwIDAgNTEyIDc2OHpNMTcwLjY2NjY2NyAzODRhODIuMjE4NjY3IDgyLjIxODY2NyAwIDAgMS02MC4zMzA2NjctMjUuMDAyNjY3QTgyLjIxODY2NyA4Mi4yMTg2NjcgMCAwIDEgODUuMzMzMzMzIDI5OC42NjY2NjdjMC0yMy41NzMzMzMgOC4zMi00My42NjkzMzMgMjUuMDAyNjY3LTYwLjMzMDY2N0E4Mi4yMTg2NjcgODIuMjE4NjY3IDAgMCAxIDE3MC42NjY2NjcgMjEzLjMzMzMzM2MyMy41NzMzMzMgMCA0My42NjkzMzMgOC4zMiA2MC4zMzA2NjYgMjUuMDAyNjY3QTgyLjIxODY2NyA4Mi4yMTg2NjcgMCAwIDEgMjU2IDI5OC42NjY2NjdjMCAyMy41NzMzMzMtOC4zMiA0My42NjkzMzMtMjUuMDAyNjY3IDYwLjMzMDY2NkE4Mi4yMTg2NjcgODIuMjE4NjY3IDAgMCAxIDE3MC42NjY2NjcgMzg0eiBtMC0xMjhjLTExLjc3NiAwLTIxLjg0NTMzMyA0LjE2LTMwLjE2NTMzNCAxMi41MDEzMzMtOC4zMiA4LjMyLTEyLjUwMTMzMyAxOC4zODkzMzMtMTIuNTAxMzMzIDMwLjE2NTMzNCAwIDExLjc3NiA0LjE2IDIxLjg0NTMzMyAxMi41MDEzMzMgMzAuMTY1MzMzIDguMzIgOC4zMiAxOC4zODkzMzMgMTIuNTAxMzMzIDMwLjE2NTMzNCAxMi41MDEzMzMgMTEuNzc2IDAgMjEuODQ1MzMzLTQuMTYgMzAuMTY1MzMzLTEyLjUwMTMzMyA4LjMyLTguMzIgMTIuNTAxMzMzLTE4LjM4OTMzMyAxMi41MDEzMzMtMzAuMTY1MzMzIDAtMTEuNzc2LTQuMTYtMjEuODQ1MzMzLTEyLjUwMTMzMy0zMC4xNjUzMzRBNDEuMTA5MzMzIDQxLjEwOTMzMyAwIDAgMCAxNzAuNjY2NjY3IDI1NnpNMTcwLjY2NjY2NyA1OTcuMzMzMzMzYTgyLjIxODY2NyA4Mi4yMTg2NjcgMCAwIDEtNjAuMzMwNjY3LTI1LjAwMjY2NkE4Mi4yMTg2NjcgODIuMjE4NjY3IDAgMCAxIDg1LjMzMzMzMyA1MTJjMC0yMy41NzMzMzMgOC4zMi00My42NjkzMzMgMjUuMDAyNjY3LTYwLjMzMDY2N0E4Mi4yMTg2NjcgODIuMjE4NjY3IDAgMCAxIDE3MC42NjY2NjcgNDI2LjY2NjY2N2MyMy41NzMzMzMgMCA0My42NjkzMzMgOC4zMiA2MC4zMzA2NjYgMjUuMDAyNjY2QTgyLjIxODY2NyA4Mi4yMTg2NjcgMCAwIDEgMjU2IDUxMmMwIDIzLjU3MzMzMy04LjMyIDQzLjY2OTMzMy0yNS4wMDI2NjcgNjAuMzMwNjY3QTgyLjIxODY2NyA4Mi4yMTg2NjcgMCAwIDEgMTcwLjY2NjY2NyA1OTcuMzMzMzMzeiBtMC0xMjhjLTExLjc3NiAwLTIxLjg0NTMzMyA0LjE2LTMwLjE2NTMzNCAxMi41MDEzMzQtOC4zMiA4LjMyLTEyLjUwMTMzMyAxOC4zODkzMzMtMTIuNTAxMzMzIDMwLjE2NTMzMyAwIDExLjc3NiA0LjE2IDIxLjg0NTMzMyAxMi41MDEzMzMgMzAuMTY1MzMzIDguMzIgOC4zMiAxOC4zODkzMzMgMTIuNTAxMzMzIDMwLjE2NTMzNCAxMi41MDEzMzQgMTEuNzc2IDAgMjEuODQ1MzMzLTQuMTYgMzAuMTY1MzMzLTEyLjUwMTMzNCA4LjMyLTguMzIgMTIuNTAxMzMzLTE4LjM4OTMzMyAxMi41MDEzMzMtMzAuMTY1MzMzIDAtMTEuNzc2LTQuMTYtMjEuODQ1MzMzLTEyLjUwMTMzMy0zMC4xNjUzMzNBNDEuMTA5MzMzIDQxLjEwOTMzMyAwIDAgMCAxNzAuNjY2NjY3IDQ2OS4zMzMzMzN6TTE3MC42NjY2NjcgODEwLjY2NjY2N2E4Mi4yMTg2NjcgODIuMjE4NjY3IDAgMCAxLTYwLjMzMDY2Ny0yNS4wMDI2NjdBODIuMjE4NjY3IDgyLjIxODY2NyAwIDAgMSA4NS4zMzMzMzMgNzI1LjMzMzMzM2MwLTIzLjU3MzMzMyA4LjMyLTQzLjY2OTMzMyAyNS4wMDI2NjctNjAuMzMwNjY2QTgyLjIxODY2NyA4Mi4yMTg2NjcgMCAwIDEgMTcwLjY2NjY2NyA2NDBjMjMuNTczMzMzIDAgNDMuNjY5MzMzIDguMzIgNjAuMzMwNjY2IDI1LjAwMjY2N0E4Mi4yMTg2NjcgODIuMjE4NjY3IDAgMCAxIDI1NiA3MjUuMzMzMzMzYzAgMjMuNTczMzMzLTguMzIgNDMuNjY5MzMzLTI1LjAwMjY2NyA2MC4zMzA2NjdBODIuMjE4NjY3IDgyLjIxODY2NyAwIDAgMSAxNzAuNjY2NjY3IDgxMC42NjY2Njd6IG0wLTEyOGMtMTEuNzc2IDAtMjEuODQ1MzMzIDQuMTYtMzAuMTY1MzM0IDEyLjUwMTMzMy04LjMyIDguMzItMTIuNTAxMzMzIDE4LjM4OTMzMy0xMi41MDEzMzMgMzAuMTY1MzMzIDAgMTEuNzc2IDQuMTYgMjEuODQ1MzMzIDEyLjUwMTMzMyAzMC4xNjUzMzQgOC4zMiA4LjMyIDE4LjM4OTMzMyAxMi41MDEzMzMgMzAuMTY1MzM0IDEyLjUwMTMzMyAxMS43NzYgMCAyMS44NDUzMzMtNC4xNiAzMC4xNjUzMzMtMTIuNTAxMzMzIDguMzItOC4zMiAxMi41MDEzMzMtMTguMzg5MzMzIDEyLjUwMTMzMy0zMC4xNjUzMzQgMC0xMS43NzYtNC4xNi0yMS44NDUzMzMtMTIuNTAxMzMzLTMwLjE2NTMzM0E0MS4xMDkzMzMgNDEuMTA5MzMzIDAgMCAwIDE3MC42NjY2NjcgNjgyLjY2NjY2N3pNODUzLjMzMzMzMyAzODRhODIuMjE4NjY3IDgyLjIxODY2NyAwIDAgMS02MC4zMzA2NjYtMjUuMDAyNjY3QTgyLjIxODY2NyA4Mi4yMTg2NjcgMCAwIDEgNzY4IDI5OC42NjY2NjdjMC0yMy41NzMzMzMgOC4zMi00My42NjkzMzMgMjUuMDAyNjY3LTYwLjMzMDY2N0E4Mi4yMTg2NjcgODIuMjE4NjY3IDAgMCAxIDg1My4zMzMzMzMgMjEzLjMzMzMzM2MyMy41NzMzMzMgMCA0My42NjkzMzMgOC4zMiA2MC4zMzA2NjcgMjUuMDAyNjY3QTgyLjIxODY2NyA4Mi4yMTg2NjcgMCAwIDEgOTM4LjY2NjY2NyAyOTguNjY2NjY3YzAgMjMuNTczMzMzLTguMzIgNDMuNjY5MzMzLTI1LjAwMjY2NyA2MC4zMzA2NjZBODIuMjE4NjY3IDgyLjIxODY2NyAwIDAgMSA4NTMuMzMzMzMzIDM4NHogbTAtMTI4Yy0xMS43NzYgMC0yMS44NDUzMzMgNC4xNi0zMC4xNjUzMzMgMTIuNTAxMzMzLTguMzIgOC4zMi0xMi41MDEzMzMgMTguMzg5MzMzLTEyLjUwMTMzMyAzMC4xNjUzMzQgMCAxMS43NzYgNC4xNiAyMS44NDUzMzMgMTIuNTAxMzMzIDMwLjE2NTMzMyA4LjMyIDguMzIgMTguMzg5MzMzIDEyLjUwMTMzMyAzMC4xNjUzMzMgMTIuNTAxMzMzIDExLjc3NiAwIDIxLjg0NTMzMy00LjE2IDMwLjE2NTMzNC0xMi41MDEzMzMgOC4zMi04LjMyIDEyLjUwMTMzMy0xOC4zODkzMzMgMTIuNTAxMzMzLTMwLjE2NTMzMyAwLTExLjc3Ni00LjE2LTIxLjg0NTMzMy0xMi41MDEzMzMtMzAuMTY1MzM0QTQxLjEwOTMzMyA0MS4xMDkzMzMgMCAwIDAgODUzLjMzMzMzMyAyNTZ6TTg1My4zMzMzMzMgNzg5LjMzMzMzM2E4Mi4yMTg2NjcgODIuMjE4NjY3IDAgMCAxLTYwLjMzMDY2Ni0yNS4wMDI2NjZBODIuMjE4NjY3IDgyLjIxODY2NyAwIDAgMSA3NjggNzA0YzAtMjMuNTczMzMzIDguMzItNDMuNjY5MzMzIDI1LjAwMjY2Ny02MC4zMzA2NjdBODIuMjE4NjY3IDgyLjIxODY2NyAwIDAgMSA4NTMuMzMzMzMzIDYxOC42NjY2NjdjMjMuNTczMzMzIDAgNDMuNjY5MzMzIDguMzIgNjAuMzMwNjY3IDI1LjAwMjY2NkE4Mi4yMTg2NjcgODIuMjE4NjY3IDAgMCAxIDkzOC42NjY2NjcgNzA0YzAgMjMuNTczMzMzLTguMzIgNDMuNjY5MzMzLTI1LjAwMjY2NyA2MC4zMzA2NjdBODIuMjE4NjY3IDgyLjIxODY2NyAwIDAgMSA4NTMuMzMzMzMzIDc4OS4zMzMzMzN6IG0wLTEyOGMtMTEuNzc2IDAtMjEuODQ1MzMzIDQuMTYtMzAuMTY1MzMzIDEyLjUwMTMzNC04LjMyIDguMzItMTIuNTAxMzMzIDE4LjM4OTMzMy0xMi41MDEzMzMgMzAuMTY1MzMzIDAgMTEuNzc2IDQuMTYgMjEuODQ1MzMzIDEyLjUwMTMzMyAzMC4xNjUzMzMgOC4zMiA4LjMyIDE4LjM4OTMzMyAxMi41MDEzMzMgMzAuMTY1MzMzIDEyLjUwMTMzNCAxMS43NzYgMCAyMS44NDUzMzMtNC4xNiAzMC4xNjUzMzQtMTIuNTAxMzM0IDguMzItOC4zMiAxMi41MDEzMzMtMTguMzg5MzMzIDEyLjUwMTMzMy0zMC4xNjUzMzMgMC0xMS43NzYtNC4xNi0yMS44NDUzMzMtMTIuNTAxMzMzLTMwLjE2NTMzM0E0MS4xMDkzMzMgNDEuMTA5MzMzIDAgMCAwIDg1My4zMzMzMzMgNjYxLjMzMzMzM3oiLz48L3N2Zz4=;rotation=-90;" vertex="1" parent="1">
          <mxGeometry x="43" y="72" width="85" height="85" as="geometry" />
        </mxCell>
        <mxCell id="LByBCSM1y4JmfTlWCJix-29" value="a" style="rounded=0;whiteSpace=wrap;html=1;fontSize=11;" vertex="1" parent="1">
          <mxGeometry x="10" y="10" width="30" height="30" as="geometry" />
        </mxCell>
        <mxCell id="LByBCSM1y4JmfTlWCJix-31" value="black" style="rounded=0;whiteSpace=wrap;html=1;fontSize=11;" vertex="1" parent="1">
          <mxGeometry x="50" y="10" width="30" height="30" as="geometry" />
        </mxCell>
        <mxCell id="LByBCSM1y4JmfTlWCJix-33" value="horse" style="rounded=0;whiteSpace=wrap;html=1;fontSize=11;" vertex="1" parent="1">
          <mxGeometry x="90" y="10" width="30" height="30" as="geometry" />
        </mxCell>
        <mxCell id="LByBCSM1y4JmfTlWCJix-35" value="..." style="rounded=0;whiteSpace=wrap;html=1;fontSize=11;" vertex="1" parent="1">
          <mxGeometry x="130" y="10" width="30" height="30" as="geometry" />
        </mxCell>
        <mxCell id="LByBCSM1y4JmfTlWCJix-36" style="edgeStyle=orthogonalEdgeStyle;rounded=0;orthogonalLoop=1;jettySize=auto;html=1;exitX=0.5;exitY=0;exitDx=0;exitDy=0;entryX=0.5;entryY=1;entryDx=0;entryDy=0;" edge="1" parent="1" target="LByBCSM1y4JmfTlWCJix-29">
          <mxGeometry relative="1" as="geometry">
            <mxPoint x="24.860000000000014" y="56" as="sourcePoint" />
            <mxPoint x="24.860000000000014" y="36" as="targetPoint" />
          </mxGeometry>
        </mxCell>
        <mxCell id="LByBCSM1y4JmfTlWCJix-39" style="edgeStyle=orthogonalEdgeStyle;rounded=0;orthogonalLoop=1;jettySize=auto;html=1;exitX=0.5;exitY=0;exitDx=0;exitDy=0;entryX=0.5;entryY=1;entryDx=0;entryDy=0;" edge="1" parent="1" target="LByBCSM1y4JmfTlWCJix-35">
          <mxGeometry relative="1" as="geometry">
            <mxPoint x="144.86" y="56" as="sourcePoint" />
            <mxPoint x="140" y="46" as="targetPoint" />
          </mxGeometry>
        </mxCell>
        <mxCell id="LByBCSM1y4JmfTlWCJix-42" style="edgeStyle=orthogonalEdgeStyle;rounded=0;orthogonalLoop=1;jettySize=auto;html=1;exitX=0.5;exitY=0;exitDx=0;exitDy=0;entryX=0.375;entryY=1.011;entryDx=0;entryDy=0;entryPerimeter=0;" edge="1" parent="1" source="LByBCSM1y4JmfTlWCJix-2" target="LByBCSM1y4JmfTlWCJix-22">
          <mxGeometry relative="1" as="geometry" />
        </mxCell>
        <mxCell id="LByBCSM1y4JmfTlWCJix-43" style="edgeStyle=orthogonalEdgeStyle;rounded=0;orthogonalLoop=1;jettySize=auto;html=1;exitX=0.5;exitY=0;exitDx=0;exitDy=0;entryX=0.635;entryY=1.001;entryDx=0;entryDy=0;entryPerimeter=0;" edge="1" parent="1" source="LByBCSM1y4JmfTlWCJix-3" target="LByBCSM1y4JmfTlWCJix-22">
          <mxGeometry relative="1" as="geometry" />
        </mxCell>
        <mxCell id="LByBCSM1y4JmfTlWCJix-44" style="edgeStyle=orthogonalEdgeStyle;rounded=0;orthogonalLoop=1;jettySize=auto;html=1;exitX=0.5;exitY=0;exitDx=0;exitDy=0;entryX=0.898;entryY=1.001;entryDx=0;entryDy=0;entryPerimeter=0;" edge="1" parent="1" source="LByBCSM1y4JmfTlWCJix-4" target="LByBCSM1y4JmfTlWCJix-22">
          <mxGeometry relative="1" as="geometry" />
        </mxCell>
        <mxCell id="LByBCSM1y4JmfTlWCJix-48" style="edgeStyle=orthogonalEdgeStyle;rounded=0;orthogonalLoop=1;jettySize=auto;html=1;exitX=1;exitY=0.25;exitDx=0;exitDy=0;entryX=0.5;entryY=1;entryDx=0;entryDy=0;" edge="1" parent="1">
          <mxGeometry relative="1" as="geometry">
            <mxPoint x="105" y="56" as="sourcePoint" />
            <mxPoint x="105" y="40" as="targetPoint" />
          </mxGeometry>
        </mxCell>
        <mxCell id="LByBCSM1y4JmfTlWCJix-50" value="BERT&lt;span style=&quot;background-color: initial;&quot;&gt;/GPT&lt;/span&gt;" style="text;html=1;align=center;verticalAlign=middle;resizable=0;points=[];autosize=1;strokeColor=none;fillColor=none;" vertex="1" parent="1">
          <mxGeometry x="45" y="53" width="80" height="30" as="geometry" />
        </mxCell>
      </root>
    </mxGraphModel>
  </diagram>
</mxfile>
